<?xml version="1.0" encoding="UTF-8"?>
<svg id="_레이어_1" data-name="레이어 1" xmlns="http://www.w3.org/2000/svg" version="1.1" viewBox="0 0 150 150">
  <defs>
    <style>
      .cls-1 {
        fill: #333;
        stroke-width: 0px;
      }
    </style>
  </defs>
  <g id="g2276">
    <g id="g2278">
      <g id="path2284">
        <path class="cls-1" d="M138.6,60.8H11.4c-2.2,0-4-1.8-4-4v-25.4c0-2.2,1.8-4,4-4h127.2c2.2,0,4,1.8,4,4v25.4c0,2.2-1.8,4-4,4ZM15.4,52.9h119.2v-17.5H15.4v17.5Z"/>
      </g>
      <g id="path2286">
        <path class="cls-1" d="M138.6,134H11.4c-2.2,0-4-1.8-4-4V56.9c0-2.2,1.8-4,4-4h127.2c2.2,0,4,1.8,4,4v73.2c0,2.2-1.8,4-4,4ZM15.4,126.1h119.2V60.8H15.4v65.3Z"/>
      </g>
      <g id="g2288">
        <g id="path2290">
          <path class="cls-1" d="M33.5,45c-2.2,0-4-1.8-4-4v-21.1c0-2.2,1.8-4,4-4s4,1.8,4,4v21.1c0,2.2-1.8,4-4,4Z"/>
        </g>
      </g>
      <g id="g2292">
        <g id="path2294">
          <path class="cls-1" d="M116.5,45c-2.2,0-4-1.8-4-4v-21.1c0-2.2,1.8-4,4-4s4,1.8,4,4v21.1c0,2.2-1.8,4-4,4Z"/>
        </g>
      </g>
    </g>
  </g>
  <g id="g2296">
    <g id="path2298">
      <path class="cls-1" d="M48.3,78.9h-13.9c-2.2,0-4-1.8-4-4s1.8-4,4-4h13.9c2.2,0,4,1.8,4,4s-1.8,4-4,4Z"/>
    </g>
  </g>
  <g id="g2300">
    <g id="path2302">
      <path class="cls-1" d="M82,78.9h-13.9c-2.2,0-4-1.8-4-4s1.8-4,4-4h13.9c2.2,0,4,1.8,4,4s-1.8,4-4,4Z"/>
    </g>
  </g>
  <g id="g2304">
    <g id="path2306">
      <path class="cls-1" d="M115.7,78.9h-13.9c-2.2,0-4-1.8-4-4s1.8-4,4-4h13.9c2.2,0,4,1.8,4,4s-1.8,4-4,4Z"/>
    </g>
  </g>
  <g id="g2308">
    <g id="path2310">
      <path class="cls-1" d="M48.3,97.4h-13.9c-2.2,0-4-1.8-4-4s1.8-4,4-4h13.9c2.2,0,4,1.8,4,4s-1.8,4-4,4Z"/>
    </g>
  </g>
  <g id="g2312">
    <g id="path2314">
      <path class="cls-1" d="M82,97.4h-13.9c-2.2,0-4-1.8-4-4s1.8-4,4-4h13.9c2.2,0,4,1.8,4,4s-1.8,4-4,4Z"/>
    </g>
  </g>
  <g id="g2316">
    <g id="path2318">
      <path class="cls-1" d="M115.7,97.4h-13.9c-2.2,0-4-1.8-4-4s1.8-4,4-4h13.9c2.2,0,4,1.8,4,4s-1.8,4-4,4Z"/>
    </g>
  </g>
  <g id="g2320">
    <g id="path2322">
      <path class="cls-1" d="M48.3,115.9h-13.9c-2.2,0-4-1.8-4-4s1.8-4,4-4h13.9c2.2,0,4,1.8,4,4s-1.8,4-4,4Z"/>
    </g>
  </g>
  <g id="g2324">
    <g id="path2326">
      <path class="cls-1" d="M82,115.9h-13.9c-2.2,0-4-1.8-4-4s1.8-4,4-4h13.9c2.2,0,4,1.8,4,4s-1.8,4-4,4Z"/>
    </g>
  </g>
  <g id="g2328">
    <g id="path2330">
      <path class="cls-1" d="M115.7,115.9h-13.9c-2.2,0-4-1.8-4-4s1.8-4,4-4h13.9c2.2,0,4,1.8,4,4s-1.8,4-4,4Z"/>
    </g>
  </g>
</svg>