<?xml version="1.0" encoding="UTF-8"?>
<svg xmlns="http://www.w3.org/2000/svg" version="1.1" viewBox="0 0 512 512">
  <defs>
    <style>
      .cls-1 {
        fill: #00bfb6;
      }

      .cls-1, .cls-2 {
        fill-rule: evenodd;
        stroke-width: 0px;
      }

      .cls-2 {
        fill: #333;
      }
    </style>
  </defs>
  <g id="_레이어_1" data-name="레이어 1" image-rendering="optimizeQuality" shape-rendering="geometricPrecision" text-rendering="geometricPrecision">
    <path class="cls-2" d="M298,301c-15.7,0-29-12.8-29-28s13-29,29-29,28,12.7,28,29c0,15.4-12.6,28-28,28ZM34,481c-5.1,0-8.8-5.4-6.3-10.2l29-56.3-11.9-.5C20.1,413.9,0,392,0,365v-185C0,153,20.2,131,45,131h68v-51c0-26.6,20.1-49,44-49h310c24.8,0,45,22,45,49v185c0,27-20.1,48.9-44.8,49l-11.9.5,29,56.3c3.5,6.7-4.8,13.2-10.4,8.8l-74.9-54.9v40.3c0,26.6-20.1,49-44,49h-226.7s-90.2,65.7-90.2,65.7c-1.2.9-2.7,1.3-4.1,1.3h0ZM127,131h228c23.9,0,44,22.4,44,49v127.3l59.2,43.4-20.4-39.6c-2.3-4.4.8-10,6-10.2l23.3-1c17.1,0,31-15.7,31-35V80c0-19.3-13.9-35-31-35H157c-16.3,0-30,16-30,35v51h0ZM45,145c-17.1,0-31,15.7-31,35v185c0,19.2,13.3,34.6,31.3,35l23,1c5.2.2,8.3,5.8,6,10.2l-20.6,39.8,68.1-49.6c1.2-.9,2.6-1.3,4.1-1.3h229c16.3,0,30-16,30-35v-185.1c0-19-13.7-35-30-35H45s0,0,0,0ZM102,301c-15.7,0-29-12.8-29-28s13-29,29-29,28,13.3,28,29c0,14.9-13.1,28-28,28ZM102,258c-8.1,0-15,6.9-15,15s7.1,14,15,14,14-6.8,14-14-6.7-15-14-15ZM200,301c-15.7,0-29-12.8-29-28s13-29,29-29,28,12.7,28,29c0,15.4-12.6,28-28,28ZM200,258c-8.1,0-15,6.9-15,15s7.1,14,15,14c18.7,0,18.2-29,0-29h0ZM298,258c-8.1,0-15,6.9-15,15s7.1,14,15,14c18.7,0,18.2-29,0-29h0Z"/>
    <path class="cls-1" d="M355,131c23.9,0,44,22.4,44,49v127.3l59.2,43.4-20.4-39.6c-2.3-4.4.8-10,6-10.2l23.3-1c17.1,0,31-15.7,31-35V80c0-19.3-13.9-35-31-35H157c-16.3,0-30,16-30,35v51h228,0Z"/>
    <path class="cls-1" d="M384.9,180c0-19-13.7-35-30-35H45c-17.1,0-31,15.7-31,35v185c0,19.2,13.3,34.6,31.3,35l23,1c5.2.2,8.3,5.8,6,10.2l-20.6,39.8,68.1-49.6c1.2-.9,2.6-1.3,4.1-1.3h229c16.3,0,30-16,30-35v-185.1h0ZM298,244c15.7,0,28,12.7,28,29,0,15.4-12.6,28-28,28s-29-12.8-29-28,13-29,29-29ZM171,273c0-16,13-29,29-29s28,12.7,28,29c0,15.4-12.6,28-28,28s-29-12.8-29-28ZM130,273c0,14.9-13.1,28-28,28s-29-12.8-29-28,13-29,29-29,28,13.3,28,29Z"/>
  </g>
</svg>