<?xml version="1.0" encoding="UTF-8"?>
<svg id="_레이어_1" data-name="레이어 1" xmlns="http://www.w3.org/2000/svg" version="1.1" viewBox="0 0 512 512">
  <defs>
    <style>
      .cls-1 {
        fill: #fff;
        stroke-width: 0px;
      }
    </style>
  </defs>
  <path class="cls-1" d="M27.2,393.3l91.5,91.5c4.4,4.3,11.4,4.3,15.7,0l121.6-121.9,121.3,121.9c4.4,4.3,11.4,4.3,15.7,0l91.5-91.5h0c4.4-4.3,4.5-11.3.3-15.7l-121.9-121.6,121.9-121.3c4.3-4.4,4.3-11.4,0-15.7l-91.5-91.5c-4.4-4.3-11.4-4.3-15.7,0l-121.6,121.6L134.7,27.2c-4.4-4.3-11.4-4.3-15.7,0L27.5,118.7c-4.3,4.4-4.3,11.4,0,15.7l121.6,121.6-121.9,121.6c-4.3,4.4-4.3,11.4,0,15.7Z"/>
</svg>