<?xml version="1.0" encoding="UTF-8"?>
<svg id="Layer_1" data-name="Layer 1" xmlns="http://www.w3.org/2000/svg" version="1.1" viewBox="0 0 512 512">
  <defs>
    <style>
      .cls-1 {
        fill: #00bfb6;
        stroke-width: 0px;
      }
    </style>
  </defs>
  <path class="cls-1" d="M81.7,221.9h91.7c.1,1.7.3,3.4.5,5.1l-22.5,13c-1.6.9-2.8,2.5-3.3,4.2s-.2,3.7.7,5.3l20.5,35.5c.9,1.6,2.5,2.8,4.2,3.3,1.8.5,3.7.2,5.3-.7l20.4-11.8c8.4,7.9,18.4,14,29.2,17.8v22.6c0,3.9,3.1,7,7,7h40.9c3.9,0,7-3.1,7-7v-22.6c10.9-3.8,20.8-9.9,29.2-17.8l20.4,11.8c1.6.9,3.5,1.2,5.3.7,1.8-.5,3.3-1.7,4.2-3.3l20.5-35.5c1.9-3.3.8-7.6-2.6-9.5l-22.5-13c.2-1.7.4-3.4.5-5.1h91.7c30.5,0,55.4-24.8,55.4-55.4s-24.9-55.4-55.4-55.4h-4.5c-3.4-27.2-26.7-48.3-54.8-48.3s-22.3,3.5-31.5,9.8C328.9,30.7,291,.5,246.6.5s-76.9,25.9-90.3,63.8c-4.1-1-8.4-1.5-12.7-1.5-28.1,0-51.4,21.1-54.9,48.3h-7c-30.5,0-55.4,24.8-55.4,55.4s24.8,55.4,55.4,55.4h0ZM347.5,248.6l-13.5,23.4-19-11c-2.8-1.6-6.4-1.1-8.6,1.3-8.7,9.3-19.7,16-31.8,19.4-3,.8-5.1,3.6-5.1,6.7v20.7h-27v-20.7c0-3.1-2.1-5.9-5.1-6.7-12.2-3.4-23.2-10.1-31.8-19.4-2.2-2.4-5.8-2.9-8.6-1.3l-19,11-13.5-23.4,20.7-11.9c2.6-1.5,4-4.5,3.4-7.5-.9-4.4-1.4-9-1.4-13.8,0-6.9,1-13.7,3-20.2.9-3.1-.4-6.5-3.2-8.1l-22.5-13,13.5-23.3,24.2,14c2.6,1.5,5.9,1.2,8.1-.8,7.8-6.9,17.1-12,27.1-14.8,3-.8,5.1-3.6,5.1-6.7v-28.9h27v28.9c0,3.1,2.1,5.9,5.1,6.7,9.9,2.8,19.3,7.9,27.1,14.8,2.3,2,5.5,2.3,8.1.8l24.2-14,13.5,23.3-22.5,13c-2.8,1.6-4.1,5-3.2,8.1,2,6.6,3,13.4,3,20.2s-.5,9.3-1.4,13.8c-.6,2.9.8,5.9,3.4,7.4l20.7,11.9ZM81.7,125.1h13.6c3.9,0,7-3.1,7-7,0-22.8,18.5-41.3,41.3-41.3s10,.9,14.7,2.7c.2.1.3.2.5.3,14.2,7.4,15.9,15.9,16.5,25.5.2,3.7,3.3,6.6,7,6.6s.3,0,.4,0c3.9-.2,6.8-3.6,6.5-7.4-.5-8.4-1.5-23.4-20-34.8,11.2-32.7,42.3-55.2,77.4-55.2s76.5,31.1,81.2,72.4c.3,2.7,2.2,5,4.8,5.9,2.6.8,5.5,0,7.3-2,7.9-8.8,19.1-13.9,30.9-13.9,22.8,0,41.3,18.5,41.3,41.3s3.1,7,7,7h11c22.8,0,41.4,18.6,41.4,41.4s-18.6,41.4-41.4,41.4h-91.8c-.3-3.8-1-7.6-1.8-11.4l23.9-13.8c3.3-1.9,4.5-6.2,2.6-9.5l-20.5-35.4c-.9-1.6-2.5-2.8-4.2-3.3-1.8-.5-3.7-.2-5.3.7l-26.1,15c-7.1-5.5-15.1-9.9-23.6-12.9v-30.8c0-3.9-3.1-7-7-7h-40.9c-3.9,0-7,3.1-7,7v30.8c-8.4,3-16.5,7.4-23.6,12.9l-26-15c-1.6-.9-3.5-1.2-5.3-.7-1.8.5-3.3,1.6-4.2,3.3l-20.5,35.4c-1.9,3.3-.8,7.6,2.6,9.5l23.9,13.8c-.9,3.7-1.5,7.6-1.8,11.4h-91.8c-22.8,0-41.4-18.6-41.4-41.4s18.6-41.4,41.4-41.4h0ZM256,170.5c-25.5,0-46.3,20.8-46.3,46.3s20.8,46.3,46.3,46.3,46.2-20.8,46.2-46.3-20.7-46.3-46.2-46.3h0ZM256,249.1c-17.8,0-32.3-14.5-32.3-32.3s14.5-32.3,32.3-32.3,32.3,14.5,32.3,32.3-14.5,32.3-32.3,32.3ZM453.4,297.9c-7.6-3.4-16-3.5-23.8-.5-4.4,1.7-8.2,4.3-11.3,7.5-1.8-.9-3.6-1.7-5.6-2.3-7.9-2.4-16.3-1.5-23.7,2.4-7.4,3.9-12.7,10.5-15.1,18.4l-17.1,56.8c-5.6-5-12.9-8-20.8-8h-54.7c-47.4-33.9-76.2-20.3-97.2-10.4-8.3,3.9-15.5,7.3-22.1,7l-28.7-1.3v-9.6c0-3.9-3.1-7-7-7H47c-3.9,0-7,3.1-7,7v146.6c0,3.9,3.1,7,7,7h79.2c3.9,0,7-3.1,7-7v-11.9c22.6.4,43.3,4.1,63.3,7.7,20.3,3.7,40.1,7.3,60.9,7.3,18.6,0,38-2.9,59.4-11.1.3-.1.7-.3,1-.5,18.5-10.7,33.7-19,46-25.7,62.6-34.2,63.4-35.9,103.7-127.1l1.9-4.2c3.3-7.6,3.5-16,.5-23.8-3-7.8-8.8-13.9-16.4-17.2h0ZM387.3,327.5c1.3-4.4,4.3-8,8.3-10.1,4.1-2.2,8.7-2.6,13-1.3.8.3,1.7.6,2.4.9-1.7,4-4.7,10.8-8.2,18.8-6.8,15.7-15.3,35.3-19.5,44.8-.9,2.1-2.3,3.4-4.4,4.3l-10.3,4.1,18.5-61.5ZM119.2,497.5H54v-132.6h65.3v132.6ZM456.6,333.3l-1.9,4.2c-19.8,44.8-29.7,67.2-41.7,82-11.7,14.4-26.5,22.5-55.9,38.5-12.2,6.7-27.4,15-45.8,25.6-41.4,15.7-75.8,9.5-112.2,2.9-20.7-3.7-41.9-7.6-65.8-7.9v-97l28.1,1.3c10,.5,19.1-3.8,28.7-8.3,20.2-9.5,43-20.3,84.9,10.4,1.2.9,2.6,1.4,4.1,1.4h57c8.5,0,15.8,6.4,17,14.8,0,.1,0,.3,0,.4,0,.2,0,.4,0,.5,0,.4,0,.9,0,1.4,0,9.5-7.7,17.2-17.1,17.2h-107c-3.9,0-7,3.1-7,7s3.1,7,7,7h107c16.7,0,30.4-13.2,31.1-29.8l17.2-6.9c5.5-2.2,9.6-6.2,12-11.6,4.2-9.5,12.7-29.1,19.5-44.9,4.6-10.6,8.5-19.7,9.5-21.9,1.8-4.2,5.2-7.4,9.5-9,4.3-1.7,9-1.6,13.1.3,4.2,1.8,7.4,5.2,9,9.5,1.7,4.3,1.6,9-.3,13.1h0Z"/>
</svg>