<?xml version="1.0" encoding="UTF-8"?>
<svg id="Capa_1" data-name="Capa 1" xmlns="http://www.w3.org/2000/svg" version="1.1" viewBox="0 0 512 512">
  <defs>
    <style>
      .cls-1 {
        fill: #333;
        stroke-width: 0px;
      }
    </style>
  </defs>
  <path class="cls-1" d="M392.9,512H119.1c-32.4,0-58.8-26.4-58.8-58.8V88.9c0-32.4,26.4-58.8,58.8-58.8h106.8c8.3,0,15,6.7,15,15s-6.7,15-15,15-15.1,6.8-15.1,15.1,1.6,7.8,4.4,10.7c2.8,2.8,6.6,4.4,10.7,4.4h60.3c8.3,0,15.1-6.8,15.1-15.1s-1.6-7.8-4.4-10.7c-2.8-2.8-6.6-4.4-10.7-4.4-8.3,0-15-6.7-15-15s6.7-15,15-15h106.8c32.4,0,58.8,26.4,58.8,58.8v364.3c0,32.4-26.4,58.8-58.8,58.8ZM119.1,60.1c-15.9,0-28.8,12.9-28.8,28.8v364.3c0,15.9,12.9,28.8,28.8,28.8h273.9c15.9,0,28.8-12.9,28.8-28.8V88.9c0-15.9-12.9-28.8-28.8-28.8h-64.3c1.7,4.8,2.6,9.9,2.6,15.1,0,24.9-20.2,45.1-45.1,45.1h-60.3c-12.1,0-23.4-4.7-31.9-13.2-8.5-8.5-13.2-19.9-13.2-31.9s.9-10.4,2.6-15.1h-64.3Z"/>
  <path class="cls-1" d="M376.5,451.8h-241c-8.3,0-15-6.7-15-15V105.4c0-8.3,6.7-15,15-15h241c8.3,0,15,6.7,15,15v331.4c0,8.3-6.7,15-15,15ZM150.5,421.8h211V120.4h-211v301.4Z"/>
  <path class="cls-1" d="M286.1,120.4h-60.3c-12.1,0-23.4-4.7-31.9-13.2-8.5-8.5-13.2-19.9-13.2-31.9,0-20.3,13.5-37.6,32.1-43.2C218.4,13.5,235.7,0,256,0s37.6,13.5,43.2,32c7,2.1,13.5,6,18.9,11.3,8.5,8.5,13.2,19.9,13.2,31.9,0,24.9-20.2,45.1-45.1,45.1ZM256,30c-8.3,0-15.1,6.8-15.1,15.1s-6.7,15-15,15-15.1,6.8-15.1,15.1,1.6,7.8,4.4,10.7c2.8,2.8,6.6,4.4,10.7,4.4h60.3c8.3,0,15.1-6.8,15.1-15.1s-1.6-7.8-4.4-10.7c-2.8-2.8-6.6-4.4-10.7-4.4-8.3,0-15-6.7-15-15s-6.8-15.1-15.1-15.1Z"/>
  <path class="cls-1" d="M316.2,195.7h-120.5c-8.3,0-15-6.7-15-15s6.7-15,15-15h120.5c8.3,0,15,6.7,15,15s-6.7,15-15,15Z"/>
  <path class="cls-1" d="M316.2,255.9h-120.5c-8.3,0-15-6.7-15-15s6.7-15,15-15h120.5c8.3,0,15,6.7,15,15s-6.7,15-15,15Z"/>
  <path class="cls-1" d="M316.2,376.4h-120.5c-8.3,0-15-6.7-15-15v-60.2c0-8.3,6.7-15,15-15h120.5c8.3,0,15,6.7,15,15v60.2c0,8.3-6.7,15-15,15ZM210.8,346.4h90.5v-30.2h-90.5v30.2Z"/>
</svg>