<?xml version="1.0" encoding="UTF-8"?>
<svg id="Layer_1" data-name="Layer 1" xmlns="http://www.w3.org/2000/svg" version="1.1" viewBox="0 0 512 512">
  <defs>
    <style>
      .cls-1 {
        fill: #333;
      }

      .cls-1, .cls-2 {
        stroke-width: 0px;
      }

      .cls-2 {
        fill: #00bfb6;
      }
    </style>
  </defs>
  <path class="cls-1" d="M502.3,479.7l-61-210.6c-.9-2.8-3.2-5-6.1-5.4l-76.6-13.9c21.5-41.4,38.2-82,38.2-109C396.8,63.2,333.6,0,255.9,0S115.1,63.2,115.1,140.8s16.6,67.5,38.1,108.9l-76.6,14c-2.9.5-5.2,2.6-6,5.4L9.6,479.7c-.8,2.9,0,6,2.4,8,2.2,2,5.4,2.5,8.2,1.3l99.3-44.3,133,66.6h.2c1,.5,2.1.8,3.3.8s2.2-.3,3.2-.8h.2l132.9-66.6,99.4,44.3c2.7,1.2,5.9.7,8.2-1.3,2.2-2,3.2-5.1,2.3-8h0ZM130.6,140.8c0-69.1,56.2-125.3,125.3-125.3s125.4,56.2,125.4,125.3-99.1,208.5-125.4,246.5c-26.2-38-125.3-185.3-125.3-246.5h0ZM399,430.6l-24.8-137.3c-.7-4.2-4.8-7-9-6.2-4.2.7-7,4.8-6.2,9l24.6,135.6-119.8,60v-51.4c0-4.3-3.5-7.8-7.8-7.8s-7.8,3.4-7.8,7.8v51.4l-119.8-59.9,24.3-135.7c.8-4.2-2.1-8.2-6.2-9-4.2-.8-8.2,2-9,6.2l-24.6,137.3-83.8,37.3,55-189.8,76.8-14c37.7,69.4,85.4,136.6,88.7,141.2,1.5,2.1,3.8,3.3,6.3,3.3s4.9-1.2,6.3-3.3c3.3-4.6,51.1-71.8,88.8-141.2l76.7,14,55,189.8-83.8-37.3Z"/>
  <path class="cls-2" d="M255.9,15.5c-69,0-125.3,56.2-125.3,125.3s99,208.5,125.3,246.5c26.2-38,125.4-185.3,125.4-246.5S325,15.5,255.9,15.5ZM255.9,221.2c-44.3,0-80.3-36.1-80.3-80.4s36-80.3,80.3-80.3,80.4,36,80.4,80.3-36.1,80.4-80.4,80.4h0Z"/>
  <path class="cls-1" d="M255.9,60.5c-44.3,0-80.3,36-80.3,80.3s36,80.4,80.3,80.4,80.4-36.1,80.4-80.4-36.1-80.3-80.4-80.3h0ZM255.9,205.7c-35.8,0-64.8-29.1-64.8-64.9s29-64.8,64.8-64.8,64.9,29,64.9,64.8-29.1,64.9-64.9,64.9h0Z"/>
</svg>