<?xml version="1.0" encoding="UTF-8"?>
<svg id="_레이어_1" data-name="레이어 1" xmlns="http://www.w3.org/2000/svg" version="1.1" viewBox="0 0 512 512">
  <defs>
    <style>
      .cls-1 {
        fill: #666;
        stroke-width: 0px;
      }
    </style>
  </defs>
  <g id="Layer_2" data-name="Layer 2">
    <g id="right">
      <path class="cls-1" d="M256,0C114.8,0,0,114.8,0,256s114.8,256,256,256,256-114.8,256-256S397.2,0,256,0ZM412.9,257.5c0,.2,0,.4,0,.6s0,.5-.1.8-.1.5-.2.7-.1.5-.2.7-.2.5-.2.7-.2.5-.2.7-.2.4-.3.6-.2.5-.3.7-.2.4-.4.6-.3.4-.4.7-.3.4-.5.6l-.4.5c-.3.4-.6.8-1,1.1l-77.4,77.4c-5.9,5.9-15.4,5.9-21.2,0s-5.9-15.4,0-21.2l51.8-51.8H114.1c-8.3,0-15-6.7-15-15s6.7-15,15-15h247.7l-51.8-51.8c-6.1-5.6-6.5-15.1-.9-21.2s15.1-6.5,21.2-.9c.3.3.6.6.9.9l77.4,77.4c.4.3.7.7,1,1.1.1.2.3.4.4.5s.3.4.5.6.3.4.4.7.2.4.4.6.2.5.3.7.2.4.3.6.2.4.2.7.2.5.2.7.1.5.2.7.1.5.2.7,0,.5.1.8,0,.4,0,.6c0,1,0,1.9,0,2.9h0Z"/>
    </g>
  </g>
</svg>