<?xml version="1.0" encoding="UTF-8"?>
<svg id="_레이어_1" data-name=" 레이어 1" xmlns="http://www.w3.org/2000/svg" version="1.1" viewBox="0 0 512 512">
  <defs>
    <style>
      .cls-1 {
        fill: #999;
        stroke-width: 0px;
      }
    </style>
  </defs>
  <g id="Layer_2" data-name="Layer 2">
    <g id="right">
      <path class="cls-1" d="M256,479.5c-123.2,0-223.5-100.3-223.5-223.5S132.8,32.5,256,32.5s223.5,100.3,223.5,223.5-100.3,223.5-223.5,223.5ZM256,43.5c-117.2,0-212.5,95.3-212.5,212.5s95.3,212.5,212.5,212.5,212.5-95.3,212.5-212.5S373.2,43.5,256,43.5Z"/>
    </g>
  </g>
  <path class="cls-1" d="M417.9,254.8v-.6c0-.3,0-.6-.1-.8s-.1-.5-.2-.7c0-.2-.1-.5-.2-.7,0-.2-.2-.5-.2-.7s-.2-.5-.2-.7-.2-.4-.3-.7c-.1-.2-.2-.5-.3-.7-.1-.2-.2-.4-.4-.6-.1-.2-.2-.4-.4-.7-.2-.2-.3-.5-.5-.6-.1-.2-.3-.4-.4-.5-.3-.4-.6-.8-1-1.1l-77.4-77.4c-.3-.3-.6-.6-.9-.9-6.1-5.6-15.6-5.2-21.2.9s-5.2,15.6.9,21.2l51.8,51.8H119.1c-8.3,0-15,6.7-15,15s6.7,15,15,15h247.7l-51.8,51.8c-5.9,5.9-5.9,15.4,0,21.2,5.9,5.9,15.4,5.9,21.2,0l77.4-77.4c.4-.3.7-.7,1-1.1l.4-.5c.2-.2.3-.4.5-.7.1-.2.3-.5.4-.7s.2-.4.4-.6c.1-.2.2-.5.3-.7s.2-.4.3-.6c0-.2.2-.5.2-.7s.2-.5.2-.7.1-.5.2-.7c0-.2.1-.5.2-.7s0-.6.1-.8v-.6h0v-2.9h0Z"/>
</svg>