<?xml version="1.0" encoding="UTF-8"?>
<svg id="_레이어_1" data-name=" 레이어 1" xmlns="http://www.w3.org/2000/svg" version="1.1" viewBox="0 0 512 512">
  <defs>
    <style>
      .cls-1 {
        fill: #00bfb6;
        stroke-width: 0px;
      }
    </style>
  </defs>
  <path class="cls-1" d="M169.5,36.3c-7.3-17.7-26.6-27.1-45-22l-83.6,22.8c-16.5,4.6-28,19.6-28,36.7,0,234.9,190.5,425.7,425.4,425.4,16.7,0,32.1-11.5,36.7-28l22.8-83.6c5-18.4-4.4-37.7-22-45l-91.2-38c-15.5-6.5-33.4-2-44,11l-38.4,46.8c-66.9-31.6-121-85.7-152.6-152.6l46.8-38.3c13-10.6,17.5-28.5,11-44l-38-91.2h0Z"/>
</svg>