<svg height="512" viewBox="0 0 512 512" width="512" xmlns="http://www.w3.org/2000/svg"><g id="Layer_2" data-name="Layer 2"><g id="right"><path d="m256 0c-141.16 0-256 114.84-256 256s114.84 256 256 256 256-114.84 256-256-114.84-256-256-256zm156.88 257.48c0 .21-.06.42-.09.63s-.07.55-.13.82-.11.48-.17.72-.12.47-.19.71-.16.46-.24.69-.16.47-.25.69-.2.43-.3.64-.21.46-.33.69-.23.4-.35.6-.26.44-.4.66-.32.43-.48.65l-.4.53a14.67 14.67 0 0 1 -1 1.1l-77.42 77.39a15 15 0 1 1 -21.21-21.22l51.82-51.78h-247.69a15 15 0 0 1 0-30h247.69l-51.82-51.82a15 15 0 1 1 21.21-21.18l77.43 77.43a14.67 14.67 0 0 1 1 1.1c.14.17.26.35.4.53s.33.43.48.65.26.44.39.66.25.39.36.6.22.46.33.68.21.43.3.65.17.45.25.68.17.46.24.7.13.47.18.7.13.48.18.73.09.54.13.82.07.41.09.63a16.26 16.26 0 0 1 -.01 2.92z"/></g></g></svg>