<?xml version="1.0" encoding="UTF-8"?>
<svg id="_레이어_1" data-name="레이어 1" xmlns="http://www.w3.org/2000/svg" version="1.1" viewBox="0 0 418.7 196">
  <defs>
    <style>
      .cls-1 {
        fill: #fff;
        stroke-width: 0px;
      }
    </style>
  </defs>
  <path class="cls-1" d="M66,126.6c-18.4,0-32.9,14.5-32.9,32.8,0,18.4,14.4,32.9,32.8,32.9,18.4,0,32.9-14.5,32.9-32.8,0-18.4-14.5-32.9-32.8-32.9ZM65.8,179.8c-11.2,0-20.4-9.1-20.5-20.3,0-11.2,9.3-20.6,20.6-20.5,11.2,0,20.4,9.2,20.5,20.4,0,11.3-9.2,20.5-20.6,20.5Z"/>
  <path class="cls-1" d="M58.6,92.2c.7,4.7.3,9.5.4,14.3,0,3.7,0,7.5,0,11.4h12.4c0-8.1,0-15.9,0-23.6-.1-15.8-12.6-29.8-28.4-31.7-16.6-2-32.4,8.2-35.9,24-1.3,5.9-1,12.3-1.2,18.4-.2,4.3,0,8.5,0,12.8h12.4c0-7.7,0-15.1,0-22.6.2-10.8,8.3-19.6,18.6-20.3,11.1-.8,20.2,6.3,21.8,17.3Z"/>
  <path class="cls-1" d="M174,63.3c-14.5-3.6-29.8,3.1-36.8,16-2.6,4.8-4,10-4,15.5,0,7.6,0,15.3,0,23.1h12.6c0-8.3-.3-16.3,0-24.2.5-11,9.9-19.2,20.8-18.8,10.9.4,19.5,9.2,19.6,20.2,0,6.7,0,13.4,0,20v2.8h12.5c0-8.1.1-15.9,0-23.8-.2-14.5-10.6-27.3-24.8-30.8Z"/>
  <path class="cls-1" d="M281.6,142.3h-12.4v39.6h76.4v-11.7h-64v-27.8Z"/>
  <path class="cls-1" d="M84.4,117.9h12.6v-3.7c0-11.3,0-22.5,0-33.8,0-2.6.6-3.5,3.3-3.4,6.9.2,13.8,0,20.9,0v-12.5h-36.7v53.3Z"/>
  <path class="cls-1" d="M212.3,117.9h12.5v-3.7c0-11.2.1-22.3,0-33.5,0-3,.8-3.9,3.8-3.8,6.7.2,13.4,0,20.3,0v-12.5h-36.6v53.4Z"/>
  <path class="cls-1" d="M345.6,64.4h-12.3v77.4h12.3v-77.4Z"/>
  <circle class="cls-1" cx="194" cy="160.1" r="31.5"/>
  <circle class="cls-1" cx="286.9" cy="99.5" r="31.5"/>
  <circle class="cls-1" cx="381.4" cy="38.1" r="31.5"/>
</svg>