<?xml version="1.0" encoding="UTF-8"?>
<svg id="Layer_1" data-name="Layer 1" xmlns="http://www.w3.org/2000/svg" version="1.1" viewBox="0 0 512 512">
  <defs>
    <style>
      .cls-1 {
        fill: #333;
        stroke-width: 0px;
      }
    </style>
  </defs>
  <path class="cls-1" d="M379.7,302.1l-54.5-27.2c38.4-31.8,65.8-89.4,65.8-139.8C391,60.6,330.4,0,256,0S121,60.6,121,135s27.4,108.1,65.8,139.8l-54.5,27.2c-56.2,1.9-101.3,48.3-101.3,104.9v90c0,8.3,6.7,15,15,15h420c8.3,0,15-6.7,15-15v-90c0-56.7-45.1-103-101.3-104.9ZM354.1,322.8l-43.2,64.8-33-16.5,43.2-64.8,33,16.5ZM256,30c52.8,0,96.6,39.2,103.9,90h-13.9c-24.8,0-45-20.2-45-45s-6.7-15-15-15-15,6.7-15,15c0,24.8-20.2,45-45,45h-73.9c7.3-50.8,51.1-90,103.9-90ZM190.9,306.3l43.2,64.8-33,16.5-43.2-64.8,33-16.5ZM241,482H61v-75c0-38.7,29.5-70.7,67.2-74.6l55.3,82.9c4.2,6.3,12.4,8.5,19.2,5.1l38.3-19.1v80.7ZM217.9,292.9c7.6-9.6,7-23.4-1.7-32.2,0,0,0,0,0,0-1.6-1.6-4.5-4.5-6.3-5.8-29.7-22.2-53-65.3-57.9-104.9h74c24.5,0,46.3-11.8,60-30,13.7,18.2,35.5,29.9,60,29.9h14c-4.9,39.6-28.2,82.7-57.9,105-1.8,1.4-4.8,4.2-6.3,5.8-8.7,8.8-9.4,22.6-1.7,32.2l-38,57.1-38.1-57.1ZM451,482h-180v-80.7l38.3,19.1c6.8,3.4,15,1.2,19.2-5.1l55.3-82.9c37.7,3.9,67.2,35.9,67.2,74.6v75Z"/>
  <path class="cls-1" d="M406,422h-60c-8.3,0-15,6.7-15,15s6.7,15,15,15h60c8.3,0,15-6.7,15-15s-6.7-15-15-15Z"/>
</svg>