<?xml version="1.0" encoding="UTF-8"?>
<svg id="svg1293" xmlns="http://www.w3.org/2000/svg" xmlns:svg="http://www.w3.org/2000/svg" version="1.1" viewBox="0 0 682.7 682.7">
  <defs>
    <style>
      .cls-1 {
        fill: #00bfb6;
        stroke-width: 0px;
      }
    </style>
  </defs>
  <path class="cls-1" d="M292.7,682.7c-3.9,0-7.8-.7-11.5-2.1-38.2-14.5-74.3-34.3-107.3-58.8-33.1-24.6-62.4-53.4-86.9-85.6C30.1,461.6,0,372.8,0,279.5v-127C0,139.6,7.9,128.1,20.2,123.4c48.3-18.8,87.1-56.5,106.3-103.6,4.9-12,16.4-19.7,29.4-19.7h273.6c13,0,24.5,7.7,29.4,19.7,19.2,47.1,58,84.9,106.3,103.6,12.3,4.8,20.2,16.2,20.2,29.2v127c0,17.7-1.1,35.5-3.3,52.8-.7,5.5-5.7,9.4-11.2,8.7-5.5-.7-9.4-5.7-8.7-11.2,2.1-16.5,3.1-33.4,3.1-50.3v-127c0-4.6-2.9-8.8-7.5-10.5-53.4-20.8-96.3-62.6-117.6-114.7-1.8-4.4-6.1-7.3-10.9-7.3H155.9c-4.8,0-9.1,2.9-10.9,7.3-21.3,52.2-64.1,94-117.6,114.7-4.5,1.8-7.5,5.9-7.5,10.5v127c0,88.9,28.7,173.4,82.9,244.5,23.4,30.7,51.3,58.1,82.9,81.6,31.5,23.4,66,42.3,102.5,56.2,2.8,1.1,6,1.1,8.8,0,26.2-10,51.6-22.7,75.5-37.7,4.7-2.9,10.8-1.5,13.8,3.1,2.9,4.7,1.5,10.8-3.1,13.8-25,15.8-51.6,29.1-79,39.5-3.7,1.4-7.6,2.1-11.5,2.1Z"/>
  <path class="cls-1" d="M292.7,614.4c-2.6,0-5.2-.5-7.7-1.6-57.1-25.5-108.9-66.4-146.1-115-48.4-63.4-74-138.9-74-218.2v-94.7c0-6.7,3.7-12.9,9.7-16.2,40.8-22.4,74.6-55.4,97.5-95.2,3.4-5.8,9.6-9.4,16.2-9.4h208.5c6.6,0,12.8,3.6,16.2,9.3,23,39.9,56.7,72.8,97.5,95.3,6,3.3,9.7,9.5,9.7,16.2v81.4c0,5.5-4.5,10-10,10s-10-4.5-10-10v-80.5c-43.5-24.1-79.5-59.2-104.2-101.8h-207c-24.7,42.5-60.7,77.7-104.2,101.8v93.8c0,74.9,24.2,146.2,69.9,206.1,35,45.9,83.9,84.5,137.8,108.7,12.8-5.7,25.4-12.3,37.5-19.6,4.7-2.8,10.9-1.3,13.7,3.4,2.8,4.7,1.3,10.9-3.4,13.7-13,7.8-26.5,14.8-40.2,21-2.4,1.1-5.1,1.6-7.7,1.6Z"/>
  <path class="cls-1" d="M355.5,314.3c-5.5,0-10-4.5-10-10v-54.6c0-28.8-23.4-52.2-52.2-52.2h-1c-28.8,0-52.2,23.4-52.2,52.2v54.6c0,5.5-4.5,10-10,10s-10-4.5-10-10v-54.6c0-39.8,32.4-72.2,72.2-72.2h1c39.8,0,72.2,32.4,72.2,72.2v54.6c0,5.5-4.5,10-10,10Z"/>
  <path class="cls-1" d="M274.7,437.7h-57.7c-17.4,0-31.5-14.1-31.5-31.5v-80.4c0-17.4,14.1-31.5,31.5-31.5h151.6c17.4,0,31.5,14.1,31.5,31.5v17.6c0,5.5-4.5,10-10,10s-10-4.5-10-10v-17.6c0-6.3-5.2-11.5-11.5-11.5h-151.6c-6.3,0-11.5,5.2-11.5,11.5v80.4c0,6.3,5.2,11.5,11.5,11.5h57.7c5.5,0,10,4.5,10,10s-4.5,10-10,10Z"/>
  <path class="cls-1" d="M491.7,682.7c-105.3,0-190.9-85.3-190.9-190.2s85.6-190.2,190.9-190.2,190.9,85.3,190.9,190.2-85.6,190.2-190.9,190.2ZM491.7,322.3c-94.2,0-170.9,76.3-170.9,170.2s76.7,170.2,170.9,170.2,170.9-76.3,170.9-170.2-76.7-170.2-170.9-170.2Z"/>
  <path class="cls-1" d="M383.2,646.7c-.4,0-.7,0-1.1,0-5.5-.6-9.5-5.5-8.9-11,3.2-29,16.9-55.8,38.7-75.4,13.6-12.3,30.1-21.4,47.7-26.3,5.3-1.5,10.8,1.6,12.3,7,1.5,5.3-1.6,10.8-7,12.3-14.6,4.1-28.3,11.6-39.7,21.9-18.1,16.3-29.5,38.6-32.2,62.7-.6,5.1-4.9,8.9-9.9,8.9Z"/>
  <path class="cls-1" d="M600.2,646.7c-5,0-9.4-3.8-9.9-8.9-2.2-19.8-10.2-38.3-23.2-53.5-12.9-15.1-29.7-25.8-48.6-31.1-5.3-1.5-8.4-7-6.9-12.3,1.5-5.3,7-8.4,12.3-6.9,22.8,6.4,43,19.3,58.5,37.4,15.6,18.3,25.3,40.5,27.9,64.3.6,5.5-3.4,10.4-8.8,11-.4,0-.7,0-1.1,0Z"/>
  <path class="cls-1" d="M491.7,562.4c-34.9,0-63.3-28.4-63.3-63.3v-24.3c0-34.9,28.4-63.3,63.3-63.3s63.3,28.4,63.3,63.3v24.3c0,34.9-28.4,63.3-63.3,63.3ZM491.7,431.5c-23.9,0-43.3,19.4-43.3,43.3v24.3c0,23.9,19.4,43.3,43.3,43.3s43.3-19.4,43.3-43.3v-24.3c0-23.9-19.4-43.3-43.3-43.3Z"/>
</svg>