<?xml version="1.0" encoding="UTF-8"?>
<svg id="Capa_1" data-name="Capa 1" xmlns="http://www.w3.org/2000/svg" version="1.1" viewBox="0 0 512 512">
  <defs>
    <style>
      .cls-1 {
        fill: #00bfb6;
        stroke-width: 0px;
      }
    </style>
  </defs>
  <path class="cls-1" d="M377,444.2c-4.1,0-7.5-3.4-7.5-7.5s3.4-7.5,7.5-7.5c28.8,0,52.2-23.4,52.2-52.2s3.4-7.5,7.5-7.5,7.5,3.4,7.5,7.5c0,37.1-30.2,67.2-67.2,67.2Z"/>
  <path class="cls-1" d="M436.7,331.3c-4.1,0-7.5-3.4-7.5-7.5v-37.7c0-4.1,3.4-7.5,7.5-7.5s7.5,3.4,7.5,7.5v37.7c0,4.1-3.4,7.5-7.5,7.5Z"/>
  <path class="cls-1" d="M436.7,233.4c-4.1,0-7.5-3.4-7.5-7.5v-37.7c0-4.1,3.4-7.5,7.5-7.5s7.5,3.4,7.5,7.5v37.7c0,4.1-3.4,7.5-7.5,7.5Z"/>
  <path class="cls-1" d="M436.7,142.5c-4.1,0-7.5-3.4-7.5-7.5,0-9.7-2.7-19.1-7.7-27.3-2.2-3.5-1.1-8.1,2.5-10.3,3.5-2.2,8.1-1.1,10.3,2.5,6.5,10.5,9.9,22.7,9.9,35.1s-3.4,7.5-7.5,7.5Z"/>
  <path class="cls-1" d="M401.9,88.2c-1.1,0-2.1-.2-3.1-.7-6.8-3.2-14.2-4.8-21.8-4.8s-7.5-3.4-7.5-7.5,3.4-7.5,7.5-7.5c9.8,0,19.3,2.1,28.1,6.1,3.8,1.7,5.4,6.2,3.7,10-1.3,2.7-4,4.4-6.8,4.4Z"/>
  <path class="cls-1" d="M323.8,82.8h-37.7c-4.1,0-7.5-3.4-7.5-7.5s3.4-7.5,7.5-7.5h37.7c4.1,0,7.5,3.4,7.5,7.5s-3.4,7.5-7.5,7.5Z"/>
  <path class="cls-1" d="M225.9,82.8h-37.7c-4.1,0-7.5-3.4-7.5-7.5s3.4-7.5,7.5-7.5h37.7c4.1,0,7.5,3.4,7.5,7.5s-3.4,7.5-7.5,7.5Z"/>
  <path class="cls-1" d="M75.3,142.5c-4.1,0-7.5-3.4-7.5-7.5,0-37.1,30.2-67.2,67.2-67.2s7.5,3.4,7.5,7.5-3.4,7.5-7.5,7.5c-28.8,0-52.2,23.4-52.2,52.2s-3.4,7.5-7.5,7.5Z"/>
  <path class="cls-1" d="M75.3,233.4c-4.1,0-7.5-3.4-7.5-7.5v-37.7c0-4.1,3.4-7.5,7.5-7.5s7.5,3.4,7.5,7.5v37.7c0,4.1-3.4,7.5-7.5,7.5Z"/>
  <path class="cls-1" d="M75.3,331.3c-4.1,0-7.5-3.4-7.5-7.5v-37.7c0-4.1,3.4-7.5,7.5-7.5s7.5,3.4,7.5,7.5v37.7c0,4.1-3.4,7.5-7.5,7.5Z"/>
  <path class="cls-1" d="M81.9,411.9c-2.7,0-5.3-1.5-6.7-4.1-4.9-9.5-7.5-20.1-7.5-30.8s3.4-7.5,7.5-7.5,7.5,3.4,7.5,7.5c0,8.5,2,16.5,5.8,24,1.9,3.7.5,8.2-3.2,10.1-1.1.6-2.3.8-3.4.8Z"/>
  <path class="cls-1" d="M135,444.2c-11.4,0-22.6-2.9-32.5-8.4-3.6-2-4.9-6.6-2.9-10.2s6.6-4.9,10.2-2.9c7.7,4.2,16.4,6.5,25.2,6.5s7.5,3.4,7.5,7.5-3.4,7.5-7.5,7.5Z"/>
  <path class="cls-1" d="M225.9,444.2h-37.7c-4.1,0-7.5-3.4-7.5-7.5s3.4-7.5,7.5-7.5h37.7c4.1,0,7.5,3.4,7.5,7.5s-3.4,7.5-7.5,7.5Z"/>
  <path class="cls-1" d="M323.8,444.2h-37.7c-4.1,0-7.5-3.4-7.5-7.5s3.4-7.5,7.5-7.5h37.7c4.1,0,7.5,3.4,7.5,7.5s-3.4,7.5-7.5,7.5Z"/>
  <path class="cls-1" d="M333,376.5h-154c-24,0-43.5-19.5-43.5-43.5v-154c0-24,19.5-43.5,43.5-43.5h154c24,0,43.5,19.5,43.5,43.5v154c0,24-19.5,43.5-43.5,43.5ZM179,150.5c-15.7,0-28.5,12.8-28.5,28.5v154c0,15.7,12.8,28.5,28.5,28.5h154c15.7,0,28.5-12.8,28.5-28.5v-154c0-15.7-12.8-28.5-28.5-28.5h-154Z"/>
  <path class="cls-1" d="M286.1,82.8h-60.2c-4.1,0-7.5-3.4-7.5-7.5v-21.8c0-17,13.8-30.8,30.8-30.8h13.6c17,0,30.8,13.8,30.8,30.8v21.8c0,4.1-3.4,7.5-7.5,7.5ZM233.4,67.8h45.2v-14.3c0-8.7-7.1-15.8-15.8-15.8h-13.6c-8.7,0-15.8,7.1-15.8,15.8v14.3Z"/>
  <path class="cls-1" d="M256,37.6c-4.1,0-7.5-3.4-7.5-7.5V7.5c0-4.1,3.4-7.5,7.5-7.5s7.5,3.4,7.5,7.5v22.6c0,4.1-3.4,7.5-7.5,7.5Z"/>
  <path class="cls-1" d="M384,82.8h-60.2c-4.1,0-7.5-3.4-7.5-7.5v-21.8c0-17,13.8-30.8,30.8-30.8h13.6c17,0,30.8,13.8,30.8,30.8v21.8c0,4.1-3.4,7.5-7.5,7.5ZM331.3,67.8h45.2v-14.3c0-8.7-7.1-15.8-15.8-15.8h-13.6c-8.7,0-15.8,7.1-15.8,15.8v14.3Z"/>
  <path class="cls-1" d="M353.9,37.6c-4.1,0-7.5-3.4-7.5-7.5V7.5c0-4.1,3.4-7.5,7.5-7.5s7.5,3.4,7.5,7.5v22.6c0,4.1-3.4,7.5-7.5,7.5Z"/>
  <path class="cls-1" d="M188.2,82.8h-60.2c-4.1,0-7.5-3.4-7.5-7.5v-21.8c0-17,13.8-30.8,30.8-30.8h13.6c17,0,30.8,13.8,30.8,30.8v21.8c0,4.1-3.4,7.5-7.5,7.5ZM135.5,67.8h45.2v-14.3c0-8.7-7.1-15.8-15.8-15.8h-13.6c-8.7,0-15.8,7.1-15.8,15.8v14.3Z"/>
  <path class="cls-1" d="M158.1,37.6c-4.1,0-7.5-3.4-7.5-7.5V7.5c0-4.1,3.4-7.5,7.5-7.5s7.5,3.4,7.5,7.5v22.6c0,4.1-3.4,7.5-7.5,7.5Z"/>
  <path class="cls-1" d="M262.8,489.4h-13.6c-17,0-30.8-13.8-30.8-30.8v-21.8c0-4.1,3.4-7.5,7.5-7.5h60.2c4.1,0,7.5,3.4,7.5,7.5v21.8c0,17-13.8,30.8-30.8,30.8ZM233.4,444.2v14.3c0,8.7,7.1,15.8,15.8,15.8h13.6c8.7,0,15.8-7.1,15.8-15.8v-14.3h-45.2Z"/>
  <path class="cls-1" d="M256,512c-4.1,0-7.5-3.4-7.5-7.5v-22.6c0-4.1,3.4-7.5,7.5-7.5s7.5,3.4,7.5,7.5v22.6c0,4.1-3.4,7.5-7.5,7.5Z"/>
  <path class="cls-1" d="M360.7,489.4h-13.6c-17,0-30.8-13.8-30.8-30.8v-21.8c0-4.1,3.4-7.5,7.5-7.5h60.2c4.1,0,7.5,3.4,7.5,7.5v21.8c0,17-13.8,30.8-30.8,30.8ZM331.3,444.2v14.3c0,8.7,7.1,15.8,15.8,15.8h13.6c8.7,0,15.8-7.1,15.8-15.8v-14.3h-45.2Z"/>
  <path class="cls-1" d="M353.9,512c-4.1,0-7.5-3.4-7.5-7.5v-22.6c0-4.1,3.4-7.5,7.5-7.5s7.5,3.4,7.5,7.5v22.6c0,4.1-3.4,7.5-7.5,7.5Z"/>
  <path class="cls-1" d="M164.9,489.4h-13.6c-17,0-30.8-13.8-30.8-30.8v-21.8c0-4.1,3.4-7.5,7.5-7.5h60.2c4.1,0,7.5,3.4,7.5,7.5v21.8c0,17-13.8,30.8-30.8,30.8ZM135.5,444.2v14.3c0,8.7,7.1,15.8,15.8,15.8h13.6c8.7,0,15.8-7.1,15.8-15.8v-14.3h-45.2Z"/>
  <path class="cls-1" d="M158.1,512c-4.1,0-7.5-3.4-7.5-7.5v-22.6c0-4.1,3.4-7.5,7.5-7.5s7.5,3.4,7.5,7.5v22.6c0,4.1-3.4,7.5-7.5,7.5Z"/>
  <path class="cls-1" d="M458.6,293.6h-21.8c-4.1,0-7.5-3.4-7.5-7.5v-60.2c0-4.1,3.4-7.5,7.5-7.5h21.8c17,0,30.8,13.8,30.8,30.8v13.6c0,17-13.8,30.8-30.8,30.8ZM444.2,278.6h14.3c8.7,0,15.8-7.1,15.8-15.8v-13.6c0-8.7-7.1-15.8-15.8-15.8h-14.3v45.2Z"/>
  <path class="cls-1" d="M504.5,263.5h-22.6c-4.1,0-7.5-3.4-7.5-7.5s3.4-7.5,7.5-7.5h22.6c4.1,0,7.5,3.4,7.5,7.5s-3.4,7.5-7.5,7.5Z"/>
  <path class="cls-1" d="M458.6,391.5h-21.8c-4.1,0-7.5-3.4-7.5-7.5v-60.2c0-4.1,3.4-7.5,7.5-7.5h21.8c17,0,30.8,13.8,30.8,30.8v13.6c0,17-13.8,30.8-30.8,30.8ZM444.2,376.5h14.3c8.7,0,15.8-7.1,15.8-15.8v-13.6c0-8.7-7.1-15.8-15.8-15.8h-14.3v45.2Z"/>
  <path class="cls-1" d="M504.5,361.4h-22.6c-4.1,0-7.5-3.4-7.5-7.5s3.4-7.5,7.5-7.5h22.6c4.1,0,7.5,3.4,7.5,7.5s-3.4,7.5-7.5,7.5Z"/>
  <path class="cls-1" d="M458.6,195.7h-21.8c-4.1,0-7.5-3.4-7.5-7.5v-60.2c0-4.1,3.4-7.5,7.5-7.5h21.8c17,0,30.8,13.8,30.8,30.8v13.6c0,17-13.8,30.8-30.8,30.8ZM444.2,180.7h14.3c8.7,0,15.8-7.1,15.8-15.8v-13.6c0-8.7-7.1-15.8-15.8-15.8h-14.3v45.2Z"/>
  <path class="cls-1" d="M504.5,165.6h-22.6c-4.1,0-7.5-3.4-7.5-7.5s3.4-7.5,7.5-7.5h22.6c4.1,0,7.5,3.4,7.5,7.5s-3.4,7.5-7.5,7.5Z"/>
  <path class="cls-1" d="M53.4,293.6c-17,0-30.8-13.8-30.8-30.8v-13.6c0-17,13.8-30.8,30.8-30.8h21.8c4.1,0,7.5,3.4,7.5,7.5v60.2c0,4.1-3.4,7.5-7.5,7.5h-21.8ZM53.4,233.4c-8.7,0-15.8,7.1-15.8,15.8v13.6c0,8.7,7.1,15.8,15.8,15.8h14.3v-45.2h-14.3Z"/>
  <path class="cls-1" d="M30.1,263.5H7.5c-4.1,0-7.5-3.4-7.5-7.5s3.4-7.5,7.5-7.5h22.6c4.1,0,7.5,3.4,7.5,7.5s-3.4,7.5-7.5,7.5Z"/>
  <path class="cls-1" d="M75.3,391.5h-21.8c-17,0-30.8-13.8-30.8-30.8v-13.6c0-17,13.8-30.8,30.8-30.8h21.8c4.1,0,7.5,3.4,7.5,7.5v60.2c0,4.1-3.4,7.5-7.5,7.5ZM53.4,331.3c-8.7,0-15.8,7.1-15.8,15.8v13.6c0,8.7,7.1,15.8,15.8,15.8h14.3v-45.2h-14.3Z"/>
  <path class="cls-1" d="M30.1,361.4H7.5c-4.1,0-7.5-3.4-7.5-7.5s3.4-7.5,7.5-7.5h22.6c4.1,0,7.5,3.4,7.5,7.5s-3.4,7.5-7.5,7.5Z"/>
  <path class="cls-1" d="M53.4,195.7c-17,0-30.8-13.8-30.8-30.8v-13.6c0-17,13.8-30.8,30.8-30.8h21.8c4.1,0,7.5,3.4,7.5,7.5v60.2c0,4.1-3.4,7.5-7.5,7.5h-21.8ZM53.4,135.5c-8.7,0-15.8,7.1-15.8,15.8v13.6c0,8.7,7.1,15.8,15.8,15.8h14.3v-45.2h-14.3Z"/>
  <path class="cls-1" d="M30.1,165.6H7.5c-4.1,0-7.5-3.4-7.5-7.5s3.4-7.5,7.5-7.5h22.6c4.1,0,7.5,3.4,7.5,7.5s-3.4,7.5-7.5,7.5Z"/>
  <path class="cls-1" d="M301.2,248.4c-20.7,0-37.6-16.9-37.6-37.6s16.9-37.6,37.6-37.6,37.6,16.9,37.6,37.6-16.9,37.6-37.6,37.6ZM301.2,188.2c-12.5,0-22.6,10.1-22.6,22.6s10.1,22.6,22.6,22.6,22.6-10.1,22.6-22.6-10.1-22.6-22.6-22.6Z"/>
  <path class="cls-1" d="M271.1,218.3h-50.2c-26.3,0-47.7-21.4-47.7-47.7v-27.6c0-4.1,3.4-7.5,7.5-7.5s7.5,3.4,7.5,7.5v27.6c0,18,14.7,32.7,32.7,32.7h50.2c4.1,0,7.5,3.4,7.5,7.5s-3.4,7.5-7.5,7.5Z"/>
  <path class="cls-1" d="M210.8,338.8c-20.7,0-37.6-16.9-37.6-37.6s16.9-37.6,37.6-37.6,37.6,16.9,37.6,37.6-16.9,37.6-37.6,37.6ZM210.8,278.6c-12.5,0-22.6,10.1-22.6,22.6s10.1,22.6,22.6,22.6,22.6-10.1,22.6-22.6-10.1-22.6-22.6-22.6Z"/>
  <path class="cls-1" d="M331.3,376.5c-4.1,0-7.5-3.4-7.5-7.5v-27.6c0-18-14.7-32.7-32.7-32.7h-50.2c-4.1,0-7.5-3.4-7.5-7.5s3.4-7.5,7.5-7.5h50.2c26.3,0,47.7,21.4,47.7,47.7v27.6c0,4.1-3.4,7.5-7.5,7.5Z"/>
</svg>