<?xml version="1.0" encoding="UTF-8"?>
<svg id="Layer_1" data-name="Layer 1" xmlns="http://www.w3.org/2000/svg" version="1.1" viewBox="0 0 512 512">
  <defs>
    <style>
      .cls-1 {
        fill: #00bfb6;
        stroke-width: 0px;
      }
    </style>
  </defs>
  <path class="cls-1" d="M468.3,413c-9.2,0-17.7,2.9-24.8,7.7l-49.1-49.1c27.1-29.8,43.7-69.4,43.7-112.8s-16.6-83-43.7-112.8l49.1-49.1c7,4.9,15.6,7.7,24.8,7.7,24.1,0,43.7-19.6,43.7-43.7s-19.6-43.7-43.7-43.7-35,12.1-41.1,28.9l-59.9-9.9c-1.2-18.1-16.3-32.4-34.7-32.4s-34.7,15.6-34.7,34.7,15.6,34.7,34.7,34.7,26.8-8.8,32.1-21.4l59.9,9.9c.2,8.9,3,17.1,7.7,24l-49.1,49.1c-29.8-27.1-69.4-43.7-112.8-43.7s-83,16.6-112.8,43.7l-28.1-28.1c4.3-6.4,6.8-14.2,6.8-22.5,0-22.4-18.2-40.6-40.6-40.6s-40.6,18.2-40.6,40.6,18.2,40.6,40.6,40.6,16.1-2.5,22.5-6.8l28.1,28.1c-25.5,28-41.6,64.6-43.5,104.9h-33.7c-3.6-15.5-17.5-27-34.1-27-19.3,0-35,15.7-35,35s15.7,35,35,35,4.6-.2,6.8-.7l22.5,49.7c-8.2,6.4-13.6,16.3-13.6,27.5,0,19.2,15.6,34.7,34.7,34.7s34.7-15.6,34.7-34.7-15.6-34.7-34.7-34.7-4.5.2-6.7.7l-22.5-49.7c6.3-4.9,10.9-11.8,12.8-19.8h33.7c4.2,88.8,77.7,159.8,167.6,159.8s83-16.6,112.8-43.7l49.1,49.1c-4.4,6.3-7.1,13.9-7.6,22l-64.2,7.7c-4.9-13.3-17.7-22.8-32.6-22.8s-34.7,15.6-34.7,34.7,15.6,34.7,34.7,34.7,32.6-13.5,34.5-30.9l64.2-7.7c5.6,17.8,22.2,30.7,41.8,30.7s43.7-19.6,43.7-43.7c0-24.1-19.6-43.7-43.7-43.7ZM468.3,33c15.4,0,27.9,12.5,27.9,27.9s-12.5,27.9-27.9,27.9-27.9-12.5-27.9-27.9c0-15.4,12.5-27.9,27.9-27.9ZM332.5,57.3c-10.4,0-18.9-8.5-18.9-18.9s8.5-18.9,18.9-18.9,18.9,8.5,18.9,18.9-8.5,18.9-18.9,18.9ZM95.7,108.8c-13.6,0-24.7-11.1-24.7-24.7s11.1-24.7,24.7-24.7,24.7,11.1,24.7,24.7-11.1,24.7-24.7,24.7ZM85.5,351.4c10.4,0,18.9,8.5,18.9,18.9s-8.5,18.9-18.9,18.9-18.9-8.5-18.9-18.9,8.5-18.9,18.9-18.9ZM35,277.9c-10.5,0-19.1-8.6-19.1-19.1s8.6-19.1,19.1-19.1,19.1,8.6,19.1,19.1-8.6,19.1-19.1,19.1ZM248.3,108.5c-9.6,9.8-18.2,20.5-25.6,31.8-7.5-4.7-14.4-10.5-20.3-17.3,14.2-7.1,29.6-12.1,45.9-14.5ZM262.4,116.9v36.8c-8.8-.8-17.4-2.9-25.5-6.1,7.4-11,15.9-21.3,25.5-30.7ZM188.3,131c7.4,9.1,16.3,16.8,26.1,22.9-16.4,29.4-25.8,62.5-27,96.9h-68.7c2.6-50.3,29.8-94.1,69.7-119.8ZM188.3,386.6c-39.9-25.7-67.1-69.6-69.7-119.8h68.7c1.3,34.4,10.6,67.5,27,96.9-9.8,6.1-18.6,13.8-26.1,22.9ZM202.3,394.6c5.9-6.8,12.8-12.6,20.3-17.3,7.5,11.3,16,22,25.6,31.8-16.3-2.4-31.7-7.4-45.9-14.5ZM262.4,400.7c-9.6-9.4-18.1-19.7-25.5-30.7,8.1-3.2,16.7-5.3,25.5-6.1v36.8ZM262.4,348c-11.8.9-23.2,3.7-33.9,8.3-15.2-27.1-24-57.7-25.2-89.6h59.1v81.2ZM262.4,250.9h-59.1c1.3-31.8,10-62.4,25.2-89.6,10.7,4.6,22.1,7.4,33.9,8.3v81.2ZM352.3,131c39.9,25.7,67.1,69.6,69.7,119.8h-68.7c-1.3-34.4-10.6-67.5-27-96.9,9.8-6.1,18.6-13.8,26.1-22.9ZM338.3,123c-5.9,6.8-12.8,12.6-20.3,17.3-7.5-11.3-16-22-25.6-31.8,16.3,2.4,31.7,7.3,45.9,14.5ZM278.3,116.9c9.6,9.4,18.1,19.7,25.5,30.7-8.1,3.2-16.6,5.3-25.5,6.1v-36.8ZM278.3,169.6c11.8-.9,23.2-3.7,33.9-8.3,15.2,27.1,24,57.7,25.2,89.6h-59.1v-81.2h0ZM278.3,266.7h59.1c-1.3,31.8-10,62.4-25.2,89.6-10.7-4.6-22.1-7.4-33.9-8.3v-81.2h0ZM278.3,363.9c8.8.8,17.4,2.9,25.5,6.1-7.4,11-15.9,21.3-25.5,30.7v-36.8ZM292.4,409.1c9.6-9.8,18.2-20.5,25.6-31.8,7.5,4.7,14.4,10.5,20.3,17.3-14.2,7.1-29.6,12.1-45.9,14.5ZM352.3,386.6c-7.4-9.1-16.3-16.8-26.1-22.9,16.4-29.4,25.8-62.5,27-96.9h68.7c-2.6,50.3-29.8,94.1-69.7,119.8ZM327.8,492.4c-10.4,0-18.9-8.5-18.9-18.9s8.5-18.9,18.9-18.9,18.9,8.5,18.9,18.9-8.5,18.9-18.9,18.9ZM468.3,484.6c-15.4,0-27.9-12.5-27.9-27.9s12.5-27.9,27.9-27.9,27.9,12.5,27.9,27.9c0,15.4-12.5,27.9-27.9,27.9Z"/>
</svg>