<?xml version="1.0" encoding="UTF-8"?>
<svg id="_레이어_1" data-name="레이어 1" xmlns="http://www.w3.org/2000/svg" version="1.1" viewBox="0 0 512 512">
  <defs>
    <style>
      .cls-1 {
        fill: #999;
        fill-rule: evenodd;
        stroke-width: 0px;
      }
    </style>
  </defs>
  <path class="cls-1" d="M469.3,227.1h21.3c9,0,17-5.6,20-14,3.1-8.4.5-17.9-6.3-23.6L296.7,14.9c-23.7-19.9-57.8-19.9-81.5,0L7.6,189.4c-6.9,5.8-9.4,15.2-6.3,23.6,3.1,8.4,11.1,14,20,14h21.3v219.7c0,35.4,28.1,65.2,64,65.2h298.7c35.9,0,64-29.7,64-65.2v-219.7ZM320,362.7v106.7h-128v-106.7c0-35.3,28.7-64,64-64s64,28.7,64,64Z"/>
</svg>