<?xml version="1.0" encoding="UTF-8"?>
<svg id="_레이어_1" data-name="레이어 1" xmlns="http://www.w3.org/2000/svg" version="1.1" viewBox="0 0 448 512">
  <defs>
    <style>
      .cls-1 {
        fill: #00bfb6;
        stroke-width: 0px;
      }
    </style>
  </defs>
  <path class="cls-1" d="M210.6,5.9L62,169.4c-3.9,4.2-6,9.8-6,15.5,0,12.8,10.3,23.1,23.1,23.1h24.9l-73.4,73.4c-4.2,4.2-6.6,10-6.6,16,0,12.5,10.1,22.6,22.6,22.6h33.4L5.4,409.5c-3.5,4.2-5.4,9.5-5.4,15,0,13,10.5,23.5,23.5,23.5h168.5v32c0,17.7,14.3,32,32,32s32-14.3,32-32v-32h168.5c13,0,23.5-10.5,23.5-23.5s-1.9-10.8-5.4-15l-74.6-89.5h33.4c12.5,0,22.6-10.1,22.6-22.6s-2.4-11.8-6.6-16l-73.4-73.4h24.9c12.7,0,23.1-10.3,23.1-23.1s-2.1-11.3-6-15.5L237.4,5.9c-3.4-3.8-8.3-5.9-13.4-5.9s-10,2.1-13.4,5.9Z"/>
</svg>