<svg id="Layer_1" enable-background="new 0 0 512 512" height="512" viewBox="0 0 512 512" width="512" xmlns="http://www.w3.org/2000/svg"><g><circle cx="256" cy="256" fill="#55acee" r="225"/><path d="m339.9 171s-13.2-16-36.2-15.2c-27.3.9-52.6 17.6-49.7 60.3 0 0-41.1 12.5-105-48.3 0 0-20.6 33.5 15.8 65.1 0 0-10.2 2.8-23.8-4.8 0 0-7.3 28.3 39.5 49.8 0 0-15.8 4.5-22.9 0 0 0 4.2 30.1 46.2 37.2 0 0-21.6 21.5-72.7 20.9 0 0 106.3 54.4 180-15.5 52.6-49.9 45.3-116.5 45.3-116.5s15.5-4.8 24.7-21.6c0 0-17.6 5.5-27.7 4.6 0 0 19.4-12.1 20.9-26.4-.2.1-16.7 11.9-34.4 10.4z" fill="#fff"/></g></svg>