<?xml version="1.0" encoding="UTF-8"?>
<svg id="_레이어_1" data-name="레이어 1" xmlns="http://www.w3.org/2000/svg" version="1.1" viewBox="0 0 640 512">
  <defs>
    <style>
      .cls-1 {
        fill: #00bfb6;
        stroke-width: 0px;
      }
    </style>
  </defs>
  <path class="cls-1" d="M144,0c44.2,0,80,35.8,80,80s-35.8,80-80,80-80-35.8-80-80S99.8,0,144,0ZM512,0c44.2,0,80,35.8,80,80s-35.8,80-80,80-80-35.8-80-80S467.8,0,512,0ZM0,298.7c0-58.9,47.8-106.7,106.7-106.7h42.7c15.9,0,31,3.5,44.6,9.7-1.3,7.2-1.9,14.7-1.9,22.3,0,38.2,16.8,72.5,43.3,96H21.3c-11.7,0-21.3-9.6-21.3-21.3ZM405.3,320h-.7c26.6-23.5,43.3-57.8,43.3-96s-.7-15-1.9-22.3c13.6-6.3,28.7-9.7,44.6-9.7h42.7c58.9,0,106.7,47.8,106.7,106.7s-9.6,21.3-21.3,21.3h-213.4ZM224,224c0-53,43-96,96-96s96,43,96,96-43,96-96,96-96-43-96-96ZM128,485.3c0-73.6,59.7-133.3,133.3-133.3h117.3c73.7,0,133.4,59.7,133.4,133.3s-11.9,26.7-26.7,26.7H154.6c-14.7,0-26.7-11.9-26.7-26.7h.1Z"/>
</svg>