<?xml version="1.0" encoding="UTF-8"?>
<svg id="_레이어_1" data-name="레이어 1" xmlns="http://www.w3.org/2000/svg" version="1.1" viewBox="0 0 512 512">
  <defs>
    <style>
      .cls-1 {
        fill: #00bfb6;
        stroke-width: 0px;
      }
    </style>
  </defs>
  <path class="cls-1" d="M192,96c26.5,0,48-21.5,48-48S218.5,0,192,0s-48,21.5-48,48,21.5,48,48,48ZM120.5,247.2c12.4-4.7,18.7-18.5,14-30.9s-18.5-18.7-30.9-14C43.1,225.1,0,283.5,0,352s71.6,160,160,160,114.3-34.3,141.2-84.7c6.2-11.7,1.8-26.2-9.9-32.5s-26.2-1.8-32.5,9.9c-18.8,35.3-56,59.3-98.8,59.3-61.9,0-112-50.1-112-112s30.1-88.8,72.5-104.8ZM259.8,176l-1.9-9.7c-4.5-22.3-24-38.3-46.8-38.3s-52.7,27.5-46.8,57l23.1,115.5c6,29.9,32.2,51.4,62.8,51.4h100.5c6.7,0,12.6,4.1,15,10.4l36.3,96.9c6,16.1,23.8,24.6,40.1,19.1l48-16c16.8-5.6,25.8-23.7,20.2-40.5s-23.7-25.8-40.5-20.2l-18.7,6.2-25.5-68c-11.7-31.2-41.6-51.9-74.9-51.9h-68.5l-9.6-48h63.4c17.7,0,32-14.3,32-32s-14.3-32-32-32h-76.2Z"/>
</svg>