<?xml version="1.0" encoding="UTF-8"?>
<svg id="_레이어_1" data-name="레이어 1" xmlns="http://www.w3.org/2000/svg" version="1.1" viewBox="0 0 512 512">
  <defs>
    <style>
      .cls-1 {
        fill: #f20000;
      }

      .cls-1, .cls-2 {
        stroke-width: 0px;
      }

      .cls-2 {
        fill: #fff;
      }
    </style>
  </defs>
  <g id="Layer_2" data-name="Layer 2">
    <g id="_04.youtube" data-name=" 04.youtube">
      <circle id="background" class="cls-1" cx="256" cy="256" r="225"/>
      <path id="icon" class="cls-2" d="M363.2,201.9c-4.5-14-19.4-22.2-33.2-24.2-49.3-5.2-99-5.2-148.3,0-13.7,1.9-28.6,10.3-33.1,24.2-7,35.7-7,72.5,0,108.3,4.6,13.9,19.5,22.2,33.3,24.2,49.3,5.2,99,5.2,148.3,0,13.7-1.9,28.6-10.3,33.1-24.2,7-35.8,6.9-72.5-.1-108.3h0ZM229.1,299.1v-86.2l70.2,43.1c-23.7,14.5-46.6,28.7-70.2,43.1h0Z"/>
    </g>
  </g>
</svg>